<?xml version="1.0" standalone="no"?><!DOCTYPE svg PUBLIC "-//W3C//DTD SVG 1.1//EN" "http://www.w3.org/Graphics/SVG/1.1/DTD/svg11.dtd"><svg class="icon" height="512" viewBox="0 0 1024 1024" version="1.1" xmlns="http://www.w3.org/2000/svg"><path d="M335.872 109.056c-79.872 0-144.384 64.512-144.384 144.384S256 397.824 335.872 397.824s144.384-64.512 144.384-144.384-64.512-144.384-144.384-144.384z m0 266.24c-67.072 0-121.856-54.784-121.856-121.856 0-67.072 54.784-121.856 121.856-121.856 67.072 0 121.856 54.784 121.856 121.856 0 67.072-54.784 121.856-121.856 121.856z" fill="#26A8BB" /><path d="M631.808 384.512c6.144-35.328 33.792-58.368 67.072-57.856 27.136 0.512 60.928 28.16 60.928 62.464 0 34.816 5.12 68.096 7.68 101.888 6.144 72.192 26.112 140.8 61.952 204.288 9.216 16.384 9.728 30.72-5.12 45.056-51.2 51.2-102.912 102.4-152.576 155.136-29.696 32.768-55.296 27.648-93.184 11.776-48.64-20.992-96.768-43.008-139.264-74.24-40.96-30.72-75.776-68.096-112.64-102.912-18.944-17.408-41.984-36.352-48.64-62.464-6.656-26.624 6.656-52.736 26.624-69.632 9.216-7.68 17.408-15.36 15.872-30.208-3.072-28.16 9.728-49.664 30.72-67.584 7.168-6.144 18.432-10.752 17.408-22.528-2.56-26.112 10.24-45.056 29.696-60.416 12.288-9.728 11.264-17.92 0-28.672-24.576-22.528-43.52-40.448-61.952-60.416-35.328-36.864-29.696-71.168-7.68-92.672 23.04-23.552 60.416-29.184 103.936 13.824C494.592 310.272 537.088 353.28 599.04 414.208c7.168 6.656 13.312 13.312 23.04 22.528 3.072-20.48 6.144-36.352 9.728-52.224z" fill="#040000" /><path d="M393.728 265.216c-11.776-11.776-25.6-17.408-38.4-4.096-14.336 14.336-8.704 26.624 4.608 39.424 55.296 52.736 109.568 107.52 163.84 160.768 9.728 9.216 19.456 16.384 4.608 31.232-15.872 15.36-22.528 2.56-31.744-5.12-12.288-10.752-28.672-28.16-47.616-45.056-13.312-11.776-25.6 3.072-32.256 10.24-6.144 6.656-13.312 26.112 3.072 43.008 14.848 15.872 31.232 30.72 47.616 46.08 9.728 8.704 16.896 15.36 3.072 28.672-8.192 7.68-15.872 12.288-25.088 3.584-19.968-19.968-44.544-57.856-73.216-30.208-17.408 16.896-14.848 29.696 3.072 43.52 11.264 8.704 20.48 19.456 30.72 29.696 8.704 8.704 20.992 14.336 5.632 30.72-16.896 17.408-23.04 4.096-33.28-5.12-15.872-13.824-39.424-34.304-55.808-5.632-18.944 33.28 29.696 64.512 49.664 83.968 29.184 28.672 58.88 56.832 91.136 81.92C504.832 834.56 556.032 855.04 604.16 875.52c8.192 3.584 20.48 4.096 31.232-7.168 46.08-49.152 92.672-98.304 142.336-143.872 18.944-17.408 5.12-32.768 0.512-40.96-47.616-89.088-51.712-185.856-59.392-282.624-1.024-13.824 1.024-33.28-23.552-31.744-21.504 1.536-26.112 14.336-27.648 33.28-3.072 31.232-4.096 62.464 10.752 90.624 7.168 14.336 0.512 19.456-6.656 27.648-11.264 11.776-17.92 1.536-24.576-5.12l-129.024-127.488c-41.984-40.96-82.944-82.944-124.416-122.88z" fill="#F4F4F4" /></svg>